# xmcd
#
# Track frame offsets:
#	150
#	15736
#	30835
#	44569
#	62524
#	81090
#	100501
#	117934
#	133451
#	145220
#	163027
#
# Disc length: 2396 seconds
#
# Revision: 0
# Processed by: cddbd v1.5.2PL0 Copyright (c) Steve Scherf et al.
# Submitted via: dBpowerAMP V4.0
#
DISCID=8c095a0b
DTITLE=The Stikman - Sweet Toof
DYEAR=1900
DGENRE=Blues
TTITLE0=Sweet Toof
TTITLE1=Going to Chicago Blues
TTITLE2=You're Perfect
TTITLE3=Hide and Go Get It
TTITLE4=She Got Me
TTITLE5=Lovetown
TTITLE6=Stikmans Stroll
TTITLE7=Wile Turkey
TTITLE8=I Don't Care Bout Nothing But Love
TTITLE9=You Just 2 Much 4 Me
TTITLE10=Love Kitchen
EXTD=
EXTT0=
EXTT1=
EXTT2=
EXTT3=
EXTT4=
EXTT5=
EXTT6=
EXTT7=
EXTT8=
EXTT9=
EXTT10=
PLAYORDER=
